PathFileType	4	(X/Y/Z)	./resultDataOpenSim/trcMotMarkerGrf/sub09/qtm-04-08.trc
DataRate	CameraRate	NumFrames	NumMarkers	Units	OrigDataRate	OrigDataStartFrame	OrigNumFrames
250.000000	250.000000	10	24	m	250.000000	312	498
Frame#	Time	L.Toe.Tip			R.Toe.Tip			L.Ankle.Lat			R.Ankle.Lat			L.Ankle.Med			R.Ankle.Med			L.Heel			R.Heel			L.Knee.Lat			R.Knee.Lat			L.Knee.Med			R.Knee.Med			L.Thigh.Upper			R.Thigh.Upper			L.ASIS			R.ASIS			V.Sacral			L.Acromium			R.Acromium			C7			L.Elbow			R.Elbow			L.Wrist.Lat			R.Wrist.Lat
		X1	Y1	Z1	X2	Y2	Z2	X3	Y3	Z3	X4	Y4	Z4	X5	Y5	Z5	X6	Y6	Z6	X7	Y7	Z7	X8	Y8	Z8	X9	Y9	Z9	X10	Y10	Z10	X11	Y11	Z11	X12	Y12	Z12	X13	Y13	Z13	X14	Y14	Z14	X15	Y15	Z15	X16	Y16	Z16	X17	Y17	Z17	X18	Y18	Z18	X19	Y19	Z19	X20	Y20	Z20	X21	Y21	Z21	X22	Y22	Z22	X23	Y23	Z23	X24	Y24	Z24

312	1.244	0.19592491	-0.013451381	0.015774858	1.0316741	0.040661002	0.11602767	0.15829911	0.13827586	-0.055250814	0.88371269	0.051937597	0.15440714	0.19264367	0.13184917	0.036188068	0.88810115	0.092177094	0.0633222	0.099874734	0.17578755	-0.0062594555	0.81427758	0.031601207	0.10722735	0.47504081	0.41549744	-0.092935819	0.87547848	0.50776026	0.21474993	0.49093737	0.39246282	0.029912471	0.86048379	0.49513005	0.089189275	0.57554996	0.80900485	-0.085808982	0.64204202	0.83761948	0.28197473	0.68355177	0.88542527	-0.04310623	0.70733148	0.91625696	0.19571609	0.52362026	0.96038556	0.090636633	0.7419722	1.3437816	-0.082271665	0.69705375	1.3554381	0.24374459	0.65071447	1.4060377	0.072148442	0.61505193	0.98746938	-0.15491814	0.51531952	1.0437462	0.32279188	0.85217624	0.85570616	-0.10952362	0.60709013	0.78870398	0.37357708
313	1.248	0.198457	-0.010492465	0.014738213	1.0317051	0.040553122	0.11591424	0.16594774	0.14350591	-0.054996101	0.88372378	0.051864184	0.15448366	0.2002089	0.13603551	0.036489872	0.88831346	0.092083129	0.063241438	0.10861531	0.18283372	-0.0056518211	0.81424288	0.031590976	0.10713296	0.48710362	0.41465534	-0.093593356	0.8805202	0.50735277	0.21514963	0.50246609	0.39199421	0.029010058	0.86558819	0.49496519	0.089367382	0.58265089	0.80917754	-0.08522709	0.64861494	0.83858867	0.28253424	0.69002814	0.88615575	-0.042434896	0.71373707	0.91712323	0.19641127	0.52978024	0.96091967	0.090354774	0.7480526	1.3447023	-0.082053332	0.70316307	1.3563029	0.2440664	0.65659991	1.4069555	0.072536959	0.62066497	0.98873514	-0.15422937	0.52222624	1.0436005	0.32266865	0.85602197	0.85385674	-0.1095863	0.6165289	0.78919031	0.37368419
314	1.252	0.20108206	-0.0071672954	0.013580321	1.031688	0.040474285	0.11590947	0.17387819	0.14894709	-0.054685982	0.88378494	0.051847887	0.15456855	0.20799324	0.14034947	0.036857891	0.88845347	0.09204584	0.063244772	0.11772227	0.19003958	-0.0050077642	0.81417046	0.031581625	0.10710547	0.49927243	0.41382148	-0.094128256	0.88541298	0.50701937	0.21559367	0.51407344	0.39161429	0.02845954	0.87046491	0.49478227	0.089563273	0.58968588	0.80942597	-0.084711887	0.65509951	0.83951925	0.28305761	0.69640331	0.88697786	-0.041846091	0.72007243	0.91799134	0.19709449	0.53671533	0.96152377	0.090295822	0.75401354	1.3456994	-0.081853457	0.70920971	1.3572469	0.24437333	0.66241349	1.4079464	0.072926033	0.62625696	0.99004494	-0.15352579	0.52916255	1.0435275	0.32259784	0.85977024	0.85201008	-0.10967624	0.62591768	0.78973525	0.37370332
315	1.256	0.20384745	-0.0034247045	0.012311757	1.0316435	0.040412188	0.11597893	0.18203164	0.15463548	-0.054359345	0.88383268	0.0518705	0.15466951	0.21599816	0.14478496	0.037261119	0.8885804	0.09206604	0.063317692	0.12716993	0.19735615	-0.004306734	0.81408464	0.031574976	0.10711489	0.51150183	0.41302969	-0.094538233	0.89010843	0.5067756	0.21602064	0.52578266	0.39128478	0.02819777	0.87514544	0.49461552	0.089780298	0.59666404	0.80973536	-0.08428962	0.66149906	0.84041817	0.28354259	0.70269695	0.88789346	-0.041324702	0.72633722	0.91888459	0.19775049	0.54461581	0.96229406	0.090760503	0.75980061	1.3467883	-0.081625742	0.71519596	1.3582674	0.2446704	0.66814267	1.4090101	0.073302127	0.63182384	0.99138667	-0.15280021	0.53623891	1.0435381	0.3226348	0.86341854	0.85018017	-0.10979713	0.63516029	0.79031436	0.37358244
316	1.26	0.20681513	0.00076732079	0.01097797	1.0315865	0.040362261	0.11607712	0.19037115	0.16056891	-0.054057624	0.88382874	0.051904015	0.15478756	0.22422315	0.14934009	0.037663525	0.88873384	0.092125369	0.063430214	0.13692239	0.20473273	-0.0035313134	0.81399816	0.031568261	0.10713319	0.5237788	0.41231951	-0.094805867	0.89457842	0.50660552	0.21637567	0.53763551	0.39103351	0.028112944	0.87962786	0.49448272	0.090039133	0.60356067	0.81009621	-0.083921194	0.66780427	0.84130158	0.28398754	0.70891338	0.88890299	-0.040863151	0.73252653	0.91982715	0.19836684	0.55321709	0.96330567	0.091851036	0.76541592	1.3479721	-0.081368716	0.72112058	1.3593713	0.24496131	0.67378158	1.4101469	0.07366457	0.63736854	0.99274997	-0.15204991	0.54342732	1.0436354	0.32275857	0.86696446	0.84837996	-0.10996077	0.64421401	0.79092663	0.3733037
317	1.264	0.21004941	0.005415262	0.0096757144	1.0315277	0.04032687	0.11617441	0.198903	0.16668512	-0.053804612	0.88378341	0.051920612	0.15490355	0.2326611	0.15402093	0.038020946	0.88892022	0.092205014	0.063552121	0.14694526	0.2121205	-0.0027040172	0.81391992	0.031561602	0.10714182	0.53611742	0.41173838	-0.094914447	0.89882451	0.50647131	0.2166477	0.54968149	0.39088061	0.028118052	0.88390686	0.49438477	0.090349898	0.61034206	0.81051102	-0.083553156	0.67399456	0.84218504	0.28438898	0.7150539	0.89000271	-0.040454259	0.73864092	0.9208402	0.19893774	0.56199415	0.96456138	0.093227259	0.77089179	1.3492477	-0.081109814	0.72698019	1.360567	0.24524616	0.67933665	1.4113573	0.074022763	0.64289668	0.9941364	-0.15127778	0.55062521	1.0438278	0.32291566	0.87040506	0.84661772	-0.11017574	0.65309762	0.79158959	0.37288125
318	1.268	0.21360482	0.010492611	0.0085393334	1.0314763	0.040305788	0.11626033	0.20761909	0.17287829	-0.053601596	0.88372559	0.051910388	0.15499433	0.24130071	0.15883473	0.038294575	0.88912756	0.092294768	0.063664955	0.15720515	0.21947895	-0.0019026428	0.81385771	0.031561034	0.10713559	0.54851508	0.41134755	-0.09486678	0.90285182	0.50632682	0.21685212	0.56192391	0.39083183	0.028173705	0.88800007	0.4943091	0.090694203	0.61699406	0.81099057	-0.083189629	0.68004683	0.84307974	0.28474507	0.7211388	0.89118835	-0.040077497	0.74469013	0.92193551	0.19946101	0.57044881	0.96593132	0.094453812	0.77624795	1.3506118	-0.080876434	0.73277401	1.361853	0.24552146	0.68482125	1.4126442	0.074381301	0.64840789	0.99555482	-0.15048974	0.55775667	1.0441245	0.32307356	0.87373899	0.84489778	-0.11044687	0.66187987	0.79232881	0.37234762
319	1.272	0.21752557	0.015946044	0.0076994064	1.0314378	0.040292358	0.11633447	0.21646448	0.17903599	-0.053440375	0.88367461	0.051878666	0.15504678	0.25012704	0.1637831	0.038465421	0.88934391	0.092389384	0.063762872	0.16766041	0.22678741	-0.0012418823	0.81381403	0.031570369	0.10711436	0.5609032	0.41121184	-0.094695597	0.90664889	0.50612137	0.21699971	0.57424691	0.39090135	0.028301284	0.8919351	0.49423865	0.091048625	0.6235264	0.81154948	-0.082867503	0.6859481	0.84399916	0.2850644	0.72722638	0.89246361	-0.03968473	0.75068571	0.92311369	0.19993498	0.57816443	0.9672237	0.0955156	0.78148393	1.35206	-0.080685644	0.73850598	1.3632182	0.24578423	0.69024101	1.4140066	0.07473329	0.65389165	0.99701265	-0.14969031	0.56480936	1.044521	0.32323339	0.87696566	0.84322623	-0.11077884	0.67065038	0.79316853	0.37173905
320	1.276	0.22186538	0.021716497	0.0072418484	1.0314108	0.040278984	0.11640002	0.22540496	0.18507312	-0.053323561	0.8836219	0.051832891	0.15506324	0.25911737	0.16887012	0.038536177	0.88956257	0.092483074	0.063846466	0.17826341	0.23404813	-0.00083767506	0.81378262	0.03158487	0.10707519	0.57317258	0.41136503	-0.094459233	0.91022134	0.5058257	0.21711495	0.58650956	0.39110754	0.028546265	0.8957262	0.49415995	0.091410337	0.62997319	0.81220297	-0.082594224	0.69169729	0.84496332	0.28536392	0.73339447	0.89384353	-0.039212265	0.75663349	0.92436863	0.20035797	0.58477499	0.96838274	0.096443819	0.78659665	1.3535863	-0.080540107	0.74418204	1.364653	0.24603613	0.69559434	1.415436	0.075070975	0.65932918	0.99851581	-0.14887692	0.57181148	1.0450015	0.32340982	0.88008341	0.8416163	-0.11118101	0.67949013	0.79413215	0.37108873
321	1.28	0.22671178	0.027757312	0.0071945629	1.031388	0.04026328	0.11646102	0.23450205	0.19096438	-0.053278538	0.88353035	0.051780934	0.15506045	0.26824447	0.17411189	0.038525932	0.88977909	0.092571386	0.063918783	0.18897872	0.24126986	-0.00077068232	0.81375304	0.031597792	0.10701858	0.58528135	0.41177572	-0.094210073	0.91365202	0.50545284	0.2172849	0.59868175	0.39145772	0.028919457	0.89937356	0.49406426	0.091788672	0.63638189	0.81296554	-0.082347154	0.69729865	0.84599367	0.28565593	0.73963627	0.89532837	-0.038663029	0.76253563	0.92569296	0.20072895	0.59004406	0.96950208	0.096887626	0.79159347	1.3551864	-0.080429874	0.74980552	1.3661575	0.24628023	0.70088071	1.416924	0.075395158	0.66470423	1.0000698	-0.1480401	0.57878731	1.0455547	0.32360838	0.88309067	0.84008779	-0.11166797	0.68844451	0.79524253	0.37041985
